<svg xmlns="http://www.w3.org/2000/svg" aria-hidden="true" style="position:absolute;width:0;height:0;overflow:hidden">
  <defs>
    <symbol id="icon-close" viewBox="0 0 32 32">
      <path stroke-linecap="round" stroke-linejoin="round" stroke-width="2" d="M23.637 24.971 6.666 8M24.076 8 7.105 24.971"/>
    </symbol>
    <symbol id="icon-cheque" viewBox="0 0 32 32">
      <path fill="none" stroke="#2563eb" stroke-width="1.5" d="M22.34 2.667H9.66c-1.545 0-2.317 0-2.941.217a4.063 4.063 0 0 0-2.508 2.581C4 6.108 4 6.902 4 8.493v18.672c0 1.144 1.313 1.752 2.144.992a1.263 1.263 0 0 1 1.712 0l.644.589a2.207 2.207 0 0 0 3 0 2.207 2.207 0 0 1 3 0 2.207 2.207 0 0 0 3 0 2.207 2.207 0 0 1 3 0 2.207 2.207 0 0 0 3 0l.644-.589a1.263 1.263 0 0 1 1.712 0c.831.76 2.144.152 2.144-.992V8.493c0-1.591 0-2.387-.211-3.027a4.071 4.071 0 0 0-2.508-2.583c-.624-.217-1.396-.217-2.941-.217z" style="stroke:var(--color1, #2563eb)"/>
      <path fill="none" stroke="#2563eb" stroke-linecap="round" stroke-width="1.5" d="M14 14.667h8.667m-13.333 0h.667M9.334 10h.667m-.667 9.333h.667M14 10h8.667M14 19.333h8.667" style="stroke:var(--color1, #2563eb)"/>
    </symbol>
    <symbol id="icon-clock" viewBox="0 0 32 32">
      <path fill="none" stroke="#2563eb" stroke-width="1.5" d="M16 29.333c7.364 0 13.333-5.97 13.333-13.333S23.363 2.667 16 2.667C8.636 2.667 2.667 8.637 2.667 16S8.637 29.333 16 29.333z" style="stroke:var(--color1, #2563eb)"/>
      <path fill="none" stroke="#2563eb" stroke-linecap="round" stroke-linejoin="round" stroke-width="1.5" d="M16 10.666v5.333l3.333 3.333" style="stroke:var(--color1, #2563eb)"/>
    </symbol>
    <symbol id="icon-cup" viewBox="0 0 32 32">
      <path fill="none" stroke="#2563eb" stroke-width="1.5" d="M16 21.334c-7.68 0-9.04-7.653-9.28-13.725-.068-1.688-.101-2.533.533-3.313.633-.781 1.392-.909 2.911-1.165A35.209 35.209 0 0 1 16 2.668c2.379 0 4.337.209 5.836.463 1.519.256 2.277.384 2.912 1.165s.6 1.625.533 3.313c-.24 6.072-1.6 13.725-9.28 13.725H16z" style="stroke:var(--color1, #2563eb)"/>
      <path fill="none" stroke="#2563eb" stroke-linecap="round" stroke-linejoin="round" stroke-width="1.5" d="m14.666 10.667 2-2V14" style="stroke:var(--color1, #2563eb)"/>
      <path fill="none" stroke="#2563eb" stroke-width="1.5" d="m25.333 6.667 1.265.421c1.32.44 1.98.66 2.357 1.184s.377 1.221.377 2.611v.097c0 1.147 0 1.721-.276 2.191s-.779.748-1.781 1.307l-3.943 2.189m-16.665-10-1.265.421c-1.32.44-1.98.66-2.357 1.184s-.377 1.221-.377 2.611v.097c0 1.147 0 1.721.276 2.191s.779.748 1.781 1.307l3.943 2.189" style="stroke:var(--color1, #2563eb)"/>
      <path fill="none" stroke="#2563eb" stroke-linecap="round" stroke-width="1.5" d="M16 21.334v4" style="stroke:var(--color1, #2563eb)"/>
      <path fill="none" stroke="#2563eb" stroke-linecap="round" stroke-linejoin="round" stroke-width="1.5" d="M20.666 29.333h-9.333l.453-2.261A1.336 1.336 0 0 1 13.093 26h5.813a1.334 1.334 0 0 1 1.307 1.072l.453 2.261z" style="stroke:var(--color1, #2563eb)"/>
      <path fill="none" stroke="#2563eb" stroke-linecap="round" stroke-width="1.5" d="M24 29.334H8" style="stroke:var(--color1, #2563eb)"/>
    </symbol>
    <symbol id="icon-hand" viewBox="0 0 32 32">
      <path fill="none" stroke="#2563eb" stroke-width="1.5" d="M14.482 4.484c.676-1.212 1.013-1.817 1.519-1.817s.843.605 1.519 1.817l.173.313c.193.345.289.517.439.631s.336.156.709.24l.339.077c1.312.296 1.968.445 2.124.947s-.291 1.025-1.185 2.071l-.232.271c-.253.297-.38.445-.437.629s-.039.383 0 .779l.035.36c.136 1.396.203 2.093-.205 2.404s-1.023.027-2.251-.539l-.319-.147c-.348-.16-.523-.24-.708-.24s-.36.08-.708.24l-.319.147c-1.227.567-1.843.849-2.251.539s-.341-1.008-.205-2.403l.035-.361c.039-.396.057-.595 0-.779s-.184-.333-.437-.629l-.232-.271c-.893-1.045-1.341-1.569-1.185-2.071s.812-.651 2.124-.947l.339-.077c.373-.084.56-.127.709-.24s.245-.285.437-.631l.175-.313zm11.425 5.758c.339-.607.507-.909.76-.909s.421.303.76.909l.087.156c.096.173.144.259.219.316s.168.077.355.12l.169.037c.656.149.984.223 1.061.475s-.145.512-.592 1.035l-.116.135c-.127.149-.191.224-.219.316s-.019.191 0 .389l.017.18c.067.697.101 1.047-.103 1.201s-.511.013-1.125-.269l-.16-.073c-.173-.08-.261-.12-.353-.12-.093 0-.18.04-.355.12l-.159.073c-.613.283-.92.424-1.125.269-.204-.155-.171-.504-.103-1.201l.017-.18c.019-.2.029-.299 0-.389-.028-.093-.092-.167-.219-.316l-.116-.135c-.447-.523-.671-.784-.592-1.035s.405-.325 1.061-.475l.169-.037c.187-.043.28-.064.355-.12.075-.057.123-.144.219-.316l.087-.156zm-21.333 0c.34-.607.507-.909.76-.909s.421.303.76.909l.087.156c.096.173.144.259.219.316s.168.077.355.12l.169.037c.656.149.984.223 1.063.475.077.251-.147.512-.593 1.035l-.116.135c-.127.149-.191.224-.219.316s-.019.191 0 .389l.017.18c.067.697.101 1.047-.103 1.201s-.512.013-1.125-.269l-.16-.073c-.173-.08-.261-.12-.353-.12-.093 0-.18.04-.355.12l-.159.073c-.613.283-.92.424-1.125.269-.204-.155-.171-.504-.103-1.201l.017-.18c.019-.2.029-.299 0-.389-.028-.093-.092-.167-.219-.316l-.116-.135c-.447-.523-.671-.784-.593-1.035.079-.252.407-.325 1.063-.475l.169-.037c.187-.043.28-.064.355-.12.075-.057.123-.144.219-.316l.087-.156z" style="stroke:var(--color1, #2563eb)"/>
      <path fill="none" stroke="#2563eb" stroke-linecap="round" stroke-width="1.5" d="M6.667 27.184H9.68c1.347 0 2.711.141 4.021.411 2.34.479 4.747.533 7.107.157 1.157-.187 2.293-.473 3.323-.969.928-.449 2.065-1.08 2.829-1.788.763-.707 1.557-1.863 2.12-2.767.485-.776.251-1.727-.515-2.304a2.52 2.52 0 0 0-2.96 0l-2.409 1.82c-.933.707-1.953 1.356-3.168 1.549-.147.023-.3.044-.46.063m0 0-.147.016m.147-.016c.213-.058.409-.168.569-.32a1.985 1.985 0 0 0 .167-2.846 2.522 2.522 0 0 0-.6-.489c-3.729-2.225-9.533-.531-13.039 1.956m12.903 1.699a.656.656 0 0 1-.147.016m.001 0c-.804.081-1.614.082-2.419.005" style="stroke:var(--color1, #2563eb)"/>
      <path fill="none" stroke="#2563eb" stroke-width="1.5" d="M6.667 20.666a2 2 0 1 0-4 0v6.667a2 2 0 1 0 4 0v-6.667z" style="stroke:var(--color1, #2563eb)"/>
    </symbol>
    <symbol id="icon-house" viewBox="0 0 32 32">
      <path fill="none" stroke="#2563eb" stroke-linecap="round" stroke-width="1.5" d="M29.333 29.333H2.666m.001-14.666L13.502 6A4 4 0 0 1 18.5 6l10.835 8.667m-8.669-7.334V4.666A.665.665 0 0 1 21.332 4h3.333a.665.665 0 0 1 .666.666v6.667m-19.998 18V12.666m21.333 16.667V12.666" style="stroke:var(--color1, #2563eb)"/>
      <path fill="none" stroke="#2563eb" stroke-width="1.5" d="M20 29.333v-6.667c0-1.885 0-2.828-.587-3.413-.584-.587-1.527-.587-3.413-.587s-2.828 0-3.413.587C12 19.837 12 20.78 12 22.666v6.667m6.667-16.666a2.668 2.668 0 1 1-5.336 0 2.668 2.668 0 0 1 5.336 0z" style="stroke:var(--color1, #2563eb)"/>
    </symbol>
    <symbol id="icon-menu" viewBox="0 0 32 32">
      <path stroke-linecap="round" stroke-width="2" d="M4 9.333h24M4 16h24M4 22.667h24"/>
    </symbol>
  </defs>
</svg>
